<?xml version="1.0" encoding="utf-8"?>
<!-- Generator: Adobe Illustrator 27.1.0, SVG Export Plug-In . SVG Version: 6.00 Build 0)  -->
<svg version="1.1" id="HSBC_MASTERBRAND_LOGO_WW_CMYK"
	 xmlns="http://www.w3.org/2000/svg" xmlns:xlink="http://www.w3.org/1999/xlink" x="0px" y="0px" viewBox="0 0 290.5 70"
	 style="enable-background:new 0 0 290.5 70;" xml:space="preserve">
<style type="text/css">
	.st0{fill:#FFFFFF;}
	.st1{fill:#DB0011;}
</style>
<g>
	<g>
		<g>
			<path d="M82.6,35h-6.1v6h-3.1V26.8h3.1v5.8h6.1v-5.8h3.1V41h-3.1V35z"/>
			<path d="M93.1,41.2c-3.1,0-5.5-1.2-5.6-4.6h3.1c0.1,1.5,1,2.4,2.6,2.4c1.3,0,2.7-0.7,2.7-2c0-1.1-1-1.5-2.5-1.9l-1.1-0.3
				c-2.2-0.7-4.5-1.5-4.5-4.1c0-3.2,2.9-4.2,5.6-4.2c2.8,0,5.1,1,5.1,4.2h-3.1c-0.1-1.3-0.9-2-2.3-2c-1.1,0-2.3,0.7-2.3,1.8
				s1,1.4,2.9,1.9l1.2,0.4c2.4,0.8,4,1.5,4,4C98.9,40,95.8,41.2,93.1,41.2z"/>
			<path d="M100.6,26.9h4.9c1.5,0,2.2,0.1,2.8,0.2c1.7,0.4,3,1.5,3,3.4c0,1.9-1.2,2.8-2.9,3.2c1.9,0.3,3.3,1.4,3.3,3.4
				c0,3.2-3.2,4-5.6,4h-5.5L100.6,26.9L100.6,26.9z M105.6,32.8c1.4,0,2.7-0.3,2.7-1.9c0-1.5-1.3-1.8-2.5-1.8h-2.2v3.8L105.6,32.8
				L105.6,32.8z M105.8,38.8c1.5,0,2.9-0.3,2.9-2c0-1.6-1.2-2-2.7-2h-2.4V39C103.6,38.8,105.8,38.8,105.8,38.8z"/>
			<path d="M120,41.2c-4.6,0-6.7-2.9-6.7-7.3s2.3-7.5,6.8-7.5c2.9,0,5.5,1.3,5.6,4.5h-3.2c-0.2-1.5-1.1-2.1-2.4-2.1
				c-2.8,0-3.7,2.9-3.7,5.2s0.8,4.8,3.5,4.8c1.5,0,2.4-0.7,2.6-2.2h3.2C125.5,40,122.9,41.2,120,41.2z"/>
		</g>
		<g>
			<rect x="16.9" y="17" class="st0" width="33.9" height="33.9"/>
			<polygon class="st1" points="50.8,50.8 67.7,33.8 50.8,17 50.8,17 			"/>
			<polygon class="st1" points="16.9,50.8 0,33.8 16.9,17 16.9,17 			"/>
			<polygon class="st1" points="50.8,17 33.8,33.8 16.9,17 16.9,17 			"/>
			<polygon class="st1" points="16.9,50.8 33.8,33.8 50.8,50.8 50.8,50.8 			"/>
		</g>
		<g>
			<g>
				<path d="M139.8,37h-7.2l-1.5,4h-1.4l5.8-14.2h1.4l6,14.2h-1.5L139.8,37z M133.1,36h6.4l-3.3-7.9L133.1,36z"/>
				<path d="M147.3,41.2c-2,0-3.6-1-3.6-3.1h1.2c0,1.5,1.1,2.2,2.4,2.2c1.2,0,2.5-0.7,2.5-1.9c0-1.1-0.9-1.5-2.2-1.8l-1.1-0.3
					c-1.5-0.4-2.7-1.1-2.7-2.6c0-1.9,1.7-2.8,3.4-2.8c1.9,0,3.3,0.9,3.4,2.9h-1.2c-0.1-1.4-0.9-1.9-2.2-1.9c-1.1,0-2.3,0.5-2.3,1.6
					c0,1,0.8,1.5,2,1.7l1.1,0.3c1.9,0.6,2.7,1.3,2.7,2.6C151.1,40.2,149.1,41.2,147.3,41.2z"/>
				<path d="M156.1,41.2c-2,0-3.6-1-3.6-3.1h1.2c0,1.5,1.1,2.2,2.4,2.2c1.2,0,2.5-0.7,2.5-1.9c0-1.1-0.9-1.5-2.2-1.8l-1.1-0.3
					c-1.5-0.4-2.7-1.1-2.7-2.6c0-1.9,1.7-2.8,3.4-2.8c1.9,0,3.3,0.9,3.4,2.9h-1.2c-0.1-1.4-0.9-1.9-2.2-1.9c-1.1,0-2.3,0.5-2.3,1.6
					c0,1,0.8,1.5,2,1.7l1.2,0.3c1.9,0.6,2.7,1.3,2.7,2.6C159.9,40.2,157.9,41.2,156.1,41.2z"/>
				<path d="M162.4,36.5c0,1.9,1.1,3.9,3.3,3.9c1.5,0,2.5-1,2.8-2.4h1.1c-0.4,2.2-1.8,3.3-4.2,3.3c-3,0-4.4-2.2-4.4-5
					c0-2.9,1.5-5.2,4.6-5.2c3.2,0,4,2.6,4,5.3h-7.3L162.4,36.5L162.4,36.5z M165.7,31.8c-1.9,0-3,1.6-3.2,3.5h6v-0.2
					C168.5,33.5,167.5,31.8,165.7,31.8z"/>
				<path d="M174.3,41c-1.5,0-2-0.7-2-2.1v-7h-1.9V31h1.9v-2l1.2-0.6V31h2.2v0.9h-2.2v6.4c0,1.1,0.2,1.6,1.5,1.6
					c0.2,0,0.6-0.1,0.9-0.1v1.1C175.3,41,174.8,41,174.3,41z"/>
				<path d="M194.5,27.9L189.2,41H188l-5.4-13.2V41h-1.2V26.9h2l5.1,12.7l5-12.7h2V41h-1.3L194.5,27.9L194.5,27.9z"/>
				<path d="M204.8,39.5c-0.8,1.3-1.8,1.6-3.3,1.6c-1.8,0-3.4-0.9-3.4-2.9c0-3.2,3.7-3.3,6.1-3.3h0.5c0-0.2,0-0.5,0-0.7
					c0-1.6-0.7-2.5-2.4-2.5c-1.3,0-2.1,0.4-2.3,1.8h-1.2c0-1.9,1.7-2.7,3.5-2.7c2.4,0,3.6,1.1,3.6,3.5v2.9c0,1.3,0.1,2.4,0.2,3.7
					H205C204.9,40.5,204.9,40,204.8,39.5z M203.6,36c-1.6,0-4.5,0.1-4.5,2.4c0,1.4,1.2,2,2.4,2c2.9,0,3-2.2,3-4.5
					C204.3,36,204,36,203.6,36z"/>
				<path d="M215.1,35.5c0-1.8-0.2-3.4-2.4-3.4s-3,1.7-3,3.8v5.2h-1.2v-7.2c0-1-0.1-1.8-0.1-2.8h1.2l0.1,1.6
					c0.8-1.2,1.7-1.7,3.3-1.7c2.7,0,3.5,1.5,3.5,4v6h-1.2L215.1,35.5L215.1,35.5z"/>
				<path d="M224.9,39.5c-0.8,1.3-1.8,1.6-3.3,1.6c-1.8,0-3.4-0.9-3.4-2.9c0-3.2,3.7-3.3,6.1-3.3h0.5c0-0.2,0-0.5,0-0.7
					c0-1.6-0.7-2.5-2.4-2.5c-1.3,0-2.1,0.4-2.3,1.8h-1.3c0-1.9,1.7-2.7,3.5-2.7c2.4,0,3.6,1.1,3.6,3.5v2.9c0,1.3,0.1,2.4,0.2,3.7
					H225C225.1,40.5,225,40,224.9,39.5z M223.9,36c-1.6,0-4.5,0.1-4.5,2.4c0,1.4,1.2,2,2.4,2c2.9,0,3-2.2,3-4.5
					C224.6,36,224.3,36,223.9,36z"/>
				<path d="M236.9,34.2v5c0,4.2-1.1,5.7-4.4,5.7c-1.9,0-3.9-0.7-3.9-2.9h1.2c0,1.5,1.3,1.9,2.6,1.9c2.4,0,3.3-1.3,3.3-5
					c-0.8,1.3-1.8,1.8-3.3,1.8c-3,0-4.4-2.2-4.4-5c0-2.6,1.5-5,4.3-5c1.5,0,2.7,0.7,3.4,1.9c0-0.7,0-1.2,0-1.8h1.3
					C236.9,32.5,236.9,33.2,236.9,34.2z M232.5,31.8c-2.4,0-3.2,2.1-3.2,4.2c0,1.9,0.9,4.1,3.2,4.1c2.4,0,3.2-2.1,3.2-4.2
					C235.7,33.8,234.6,31.8,232.5,31.8z"/>
				<path d="M240,36.5c0,1.9,1.1,3.9,3.3,3.9c1.5,0,2.5-1,2.8-2.4h1.1c-0.4,2.2-1.8,3.3-4.2,3.3c-3,0-4.4-2.2-4.4-5
					c0-2.9,1.5-5.2,4.6-5.2c3.2,0,4,2.6,4,5.3H240V36.5L240,36.5z M243.2,31.8c-1.9,0-3,1.6-3.2,3.5h6v-0.2
					C246.2,33.5,245.1,31.8,243.2,31.8z"/>
				<path d="M262.3,35c0-1.7-0.5-3-2.4-3c-2.2,0-2.9,1.5-2.9,3.5V41h-1.2v-5.9c0-1.7-0.4-3.2-2.4-3.2c-1.9,0-2.9,1.7-2.9,3.5v5.5
					h-1.2v-7.6c0-0.8-0.1-1.5-0.1-2.4h1.2l0.1,1.7c0.7-1.2,1.6-1.8,3.1-1.8c1.6,0,2.5,0.6,3.2,2.1c0.7-1.5,1.7-2.1,3.4-2.1
					c2.9,0,3.3,1.9,3.3,4.4V41h-1.2V35L262.3,35z"/>
				<path d="M266.7,36.5c0,1.9,1.1,3.9,3.3,3.9c1.5,0,2.5-1,2.8-2.4h1.1c-0.4,2.2-1.8,3.3-4.2,3.3c-3,0-4.4-2.2-4.4-5
					c0-2.9,1.5-5.2,4.6-5.2c3.2,0,4,2.6,4,5.3h-7.3L266.7,36.5L266.7,36.5z M270,31.8c-1.9,0-3,1.6-3.2,3.5h6v-0.2
					C272.8,33.5,271.8,31.8,270,31.8z"/>
				<path d="M282.8,35.5c0-1.8-0.2-3.4-2.4-3.4c-2.2,0-3,1.7-3,3.8v5.2h-1.2v-7.2c0-1-0.1-1.8-0.1-2.8h1.2l0.1,1.6
					c0.8-1.2,1.7-1.7,3.3-1.7c2.7,0,3.5,1.5,3.5,4v6h-1.4V35.5L282.8,35.5z"/>
				<path d="M289,41c-1.5,0-2-0.7-2-2.1v-7h-1.9V31h1.9v-2l1.2-0.6V31h2.2v0.9h-2.2v6.4c0,1.1,0.2,1.6,1.5,1.6
					c0.2,0,0.6-0.1,0.9-0.1v1.1C290,41,289.5,41,289,41z"/>
			</g>
		</g>
	</g>
</g>
</svg>
